<?xml version="1.0" encoding="utf-8" standalone="no"?>
<!DOCTYPE svg PUBLIC "-//W3C//DTD SVG 1.1//EN"
  "http://www.w3.org/Graphics/SVG/1.1/DTD/svg11.dtd">
<svg xmlns:xlink="http://www.w3.org/1999/xlink" width="576pt" height="432pt" viewBox="0 0 576 432" xmlns="http://www.w3.org/2000/svg" version="1.1">
 <metadata>
  <rdf:RDF xmlns:dc="http://purl.org/dc/elements/1.1/" xmlns:cc="http://creativecommons.org/ns#" xmlns:rdf="http://www.w3.org/1999/02/22-rdf-syntax-ns#">
   <cc:Work>
    <dc:type rdf:resource="http://purl.org/dc/dcmitype/StillImage"/>
    <dc:date>2023-05-16T10:59:21.987939</dc:date>
    <dc:format>image/svg+xml</dc:format>
    <dc:creator>
     <cc:Agent>
      <dc:title>Matplotlib v3.7.1, https://matplotlib.org/</dc:title>
     </cc:Agent>
    </dc:creator>
   </cc:Work>
  </rdf:RDF>
 </metadata>
 <defs>
  <style type="text/css">*{stroke-linejoin: round; stroke-linecap: butt}</style>
 </defs>
 <g id="figure_1">
  <g id="patch_1">
   <path d="M 0 432 
L 576 432 
L 576 0 
L 0 0 
z
" style="fill: #ffffff"/>
  </g>
  <g id="axes_1">
   <g id="patch_2">
    <path d="M 72 384.48 
L 518.4 384.48 
L 518.4 51.84 
L 72 51.84 
z
" style="fill: #ffffff"/>
   </g>
   <g id="patch_3">
    <path d="M 92.290909 172176.673569 
L 100.745455 172176.673569 
L 100.745455 274.747592 
L 92.290909 274.747592 
z
" clip-path="url(#ped96039b7e)" style="fill: #264653"/>
   </g>
   <g id="patch_4">
    <path d="M 134.563636 172176.673569 
L 143.018182 172176.673569 
L 143.018182 257.709881 
L 134.563636 257.709881 
z
" clip-path="url(#ped96039b7e)" style="fill: #264653"/>
   </g>
   <g id="patch_5">
    <path d="M 176.836364 172176.673569 
L 185.290909 172176.673569 
L 185.290909 66.96 
L 176.836364 66.96 
z
" clip-path="url(#ped96039b7e)" style="fill: #264653"/>
   </g>
   <g id="patch_6">
    <path d="M 219.109091 172176.673569 
L 227.563636 172176.673569 
L 227.563636 294.949901 
L 219.109091 294.949901 
z
" clip-path="url(#ped96039b7e)" style="fill: #264653"/>
   </g>
   <g id="patch_7">
    <path d="M 261.381818 172176.673569 
L 269.836364 172176.673569 
L 269.836364 297.84361 
L 261.381818 297.84361 
z
" clip-path="url(#ped96039b7e)" style="fill: #264653"/>
   </g>
   <g id="patch_8">
    <path d="M 303.654545 172176.673569 
L 312.109091 172176.673569 
L 312.109091 269.772939 
L 303.654545 269.772939 
z
" clip-path="url(#ped96039b7e)" style="fill: #264653"/>
   </g>
   <g id="patch_9">
    <path d="M 345.927273 172176.673569 
L 354.381818 172176.673569 
L 354.381818 239.140749 
L 345.927273 239.140749 
z
" clip-path="url(#ped96039b7e)" style="fill: #264653"/>
   </g>
   <g id="patch_10">
    <path d="M 388.2 172176.673569 
L 396.654545 172176.673569 
L 396.654545 318.699228 
L 388.2 318.699228 
z
" clip-path="url(#ped96039b7e)" style="fill: #264653"/>
   </g>
   <g id="patch_11">
    <path d="M 430.472727 172176.673569 
L 438.927273 172176.673569 
L 438.927273 323.340109 
L 430.472727 323.340109 
z
" clip-path="url(#ped96039b7e)" style="fill: #264653"/>
   </g>
   <g id="patch_12">
    <path d="M 472.745455 172176.673569 
L 481.2 172176.673569 
L 481.2 369.36 
L 472.745455 369.36 
z
" clip-path="url(#ped96039b7e)" style="fill: #264653"/>
   </g>
   <g id="patch_13">
    <path d="M 100.745455 172176.673569 
L 109.2 172176.673569 
L 109.2 308.424085 
L 100.745455 308.424085 
z
" clip-path="url(#ped96039b7e)" style="fill: #e66f51"/>
   </g>
   <g id="patch_14">
    <path d="M 143.018182 172176.673569 
L 151.472727 172176.673569 
L 151.472727 308.424085 
L 143.018182 308.424085 
z
" clip-path="url(#ped96039b7e)" style="fill: #e66f51"/>
   </g>
   <g id="patch_15">
    <path d="M 185.290909 172176.673569 
L 193.745455 172176.673569 
L 193.745455 308.424085 
L 185.290909 308.424085 
z
" clip-path="url(#ped96039b7e)" style="fill: #e66f51"/>
   </g>
   <g id="patch_16">
    <path d="M 227.563636 172176.673569 
L 236.018182 172176.673569 
L 236.018182 308.424085 
L 227.563636 308.424085 
z
" clip-path="url(#ped96039b7e)" style="fill: #e66f51"/>
   </g>
   <g id="patch_17">
    <path d="M 269.836364 172176.673569 
L 278.290909 172176.673569 
L 278.290909 308.424085 
L 269.836364 308.424085 
z
" clip-path="url(#ped96039b7e)" style="fill: #e66f51"/>
   </g>
   <g id="patch_18">
    <path d="M 312.109091 172176.673569 
L 320.563636 172176.673569 
L 320.563636 308.424085 
L 312.109091 308.424085 
z
" clip-path="url(#ped96039b7e)" style="fill: #e66f51"/>
   </g>
   <g id="patch_19">
    <path d="M 354.381818 172176.673569 
L 362.836364 172176.673569 
L 362.836364 308.424085 
L 354.381818 308.424085 
z
" clip-path="url(#ped96039b7e)" style="fill: #e66f51"/>
   </g>
   <g id="patch_20">
    <path d="M 396.654545 172176.673569 
L 405.109091 172176.673569 
L 405.109091 308.424085 
L 396.654545 308.424085 
z
" clip-path="url(#ped96039b7e)" style="fill: #e66f51"/>
   </g>
   <g id="patch_21">
    <path d="M 438.927273 172176.673569 
L 447.381818 172176.673569 
L 447.381818 308.424085 
L 438.927273 308.424085 
z
" clip-path="url(#ped96039b7e)" style="fill: #e66f51"/>
   </g>
   <g id="patch_22">
    <path d="M 481.2 172176.673569 
L 489.654545 172176.673569 
L 489.654545 308.424085 
L 481.2 308.424085 
z
" clip-path="url(#ped96039b7e)" style="fill: #e66f51"/>
   </g>
   <g id="patch_23">
    <path d="M 109.2 172176.673569 
L 117.654545 172176.673569 
L 117.654545 224.450217 
L 109.2 224.450217 
z
" clip-path="url(#ped96039b7e)" style="fill: #e9c46b"/>
   </g>
   <g id="patch_24">
    <path d="M 151.472727 172176.673569 
L 159.927273 172176.673569 
L 159.927273 265.517552 
L 151.472727 265.517552 
z
" clip-path="url(#ped96039b7e)" style="fill: #e9c46b"/>
   </g>
   <g id="patch_25">
    <path d="M 193.745455 172176.673569 
L 202.2 172176.673569 
L 202.2 289.020481 
L 193.745455 289.020481 
z
" clip-path="url(#ped96039b7e)" style="fill: #e9c46b"/>
   </g>
   <g id="patch_26">
    <path d="M 236.018182 172176.673569 
L 244.472727 172176.673569 
L 244.472727 240.814165 
L 236.018182 240.814165 
z
" clip-path="url(#ped96039b7e)" style="fill: #e9c46b"/>
   </g>
   <g id="patch_27">
    <path d="M 278.290909 172176.673569 
L 286.745455 172176.673569 
L 286.745455 336.404292 
L 278.290909 336.404292 
z
" clip-path="url(#ped96039b7e)" style="fill: #e9c46b"/>
   </g>
   <g id="patch_28">
    <path d="M 320.563636 172176.673569 
L 329.018182 172176.673569 
L 329.018182 262.107023 
L 320.563636 262.107023 
z
" clip-path="url(#ped96039b7e)" style="fill: #e9c46b"/>
   </g>
   <g id="patch_29">
    <path d="M 362.836364 172176.673569 
L 371.290909 172176.673569 
L 371.290909 264.130695 
L 362.836364 264.130695 
z
" clip-path="url(#ped96039b7e)" style="fill: #e9c46b"/>
   </g>
   <g id="patch_30">
    <path d="M 405.109091 172176.673569 
L 413.563636 172176.673569 
L 413.563636 236.549132 
L 405.109091 236.549132 
z
" clip-path="url(#ped96039b7e)" style="fill: #e9c46b"/>
   </g>
   <g id="patch_31">
    <path d="M 447.381818 172176.673569 
L 455.836364 172176.673569 
L 455.836364 223.344457 
L 447.381818 223.344457 
z
" clip-path="url(#ped96039b7e)" style="fill: #e9c46b"/>
   </g>
   <g id="patch_32">
    <path d="M 489.654545 172176.673569 
L 498.109091 172176.673569 
L 498.109091 243.13254 
L 489.654545 243.13254 
z
" clip-path="url(#ped96039b7e)" style="fill: #e9c46b"/>
   </g>
   <g id="matplotlib.axis_1">
    <g id="xtick_1">
     <g id="line2d_1">
      <defs>
       <path id="m11e224b596" d="M 0 0 
L 0 3.5 
" style="stroke: #000000; stroke-width: 0.8"/>
      </defs>
      <g>
       <use xlink:href="#m11e224b596" x="104.972727" y="384.48" style="stroke: #000000; stroke-width: 0.8"/>
      </g>
     </g>
     <g id="text_1">
      <!-- Dir -->
      <g transform="translate(99.137102 397.55875) scale(0.08 -0.08)">
       <defs>
        <path id="DejaVuSans-44" d="M 1259 4147 
L 1259 519 
L 2022 519 
Q 2988 519 3436 956 
Q 3884 1394 3884 2338 
Q 3884 3275 3436 3711 
Q 2988 4147 2022 4147 
L 1259 4147 
z
M 628 4666 
L 1925 4666 
Q 3281 4666 3915 4102 
Q 4550 3538 4550 2338 
Q 4550 1131 3912 565 
Q 3275 0 1925 0 
L 628 0 
L 628 4666 
z
" transform="scale(0.015625)"/>
        <path id="DejaVuSans-69" d="M 603 3500 
L 1178 3500 
L 1178 0 
L 603 0 
L 603 3500 
z
M 603 4863 
L 1178 4863 
L 1178 4134 
L 603 4134 
L 603 4863 
z
" transform="scale(0.015625)"/>
        <path id="DejaVuSans-72" d="M 2631 2963 
Q 2534 3019 2420 3045 
Q 2306 3072 2169 3072 
Q 1681 3072 1420 2755 
Q 1159 2438 1159 1844 
L 1159 0 
L 581 0 
L 581 3500 
L 1159 3500 
L 1159 2956 
Q 1341 3275 1631 3429 
Q 1922 3584 2338 3584 
Q 2397 3584 2469 3576 
Q 2541 3569 2628 3553 
L 2631 2963 
z
" transform="scale(0.015625)"/>
       </defs>
       <use xlink:href="#DejaVuSans-44"/>
       <use xlink:href="#DejaVuSans-69" x="77.001953"/>
       <use xlink:href="#DejaVuSans-72" x="104.785156"/>
      </g>
      <!-- create -->
      <g transform="translate(92.277102 406.517) scale(0.08 -0.08)">
       <defs>
        <path id="DejaVuSans-63" d="M 3122 3366 
L 3122 2828 
Q 2878 2963 2633 3030 
Q 2388 3097 2138 3097 
Q 1578 3097 1268 2742 
Q 959 2388 959 1747 
Q 959 1106 1268 751 
Q 1578 397 2138 397 
Q 2388 397 2633 464 
Q 2878 531 3122 666 
L 3122 134 
Q 2881 22 2623 -34 
Q 2366 -91 2075 -91 
Q 1284 -91 818 406 
Q 353 903 353 1747 
Q 353 2603 823 3093 
Q 1294 3584 2113 3584 
Q 2378 3584 2631 3529 
Q 2884 3475 3122 3366 
z
" transform="scale(0.015625)"/>
        <path id="DejaVuSans-65" d="M 3597 1894 
L 3597 1613 
L 953 1613 
Q 991 1019 1311 708 
Q 1631 397 2203 397 
Q 2534 397 2845 478 
Q 3156 559 3463 722 
L 3463 178 
Q 3153 47 2828 -22 
Q 2503 -91 2169 -91 
Q 1331 -91 842 396 
Q 353 884 353 1716 
Q 353 2575 817 3079 
Q 1281 3584 2069 3584 
Q 2775 3584 3186 3129 
Q 3597 2675 3597 1894 
z
M 3022 2063 
Q 3016 2534 2758 2815 
Q 2500 3097 2075 3097 
Q 1594 3097 1305 2825 
Q 1016 2553 972 2059 
L 3022 2063 
z
" transform="scale(0.015625)"/>
        <path id="DejaVuSans-61" d="M 2194 1759 
Q 1497 1759 1228 1600 
Q 959 1441 959 1056 
Q 959 750 1161 570 
Q 1363 391 1709 391 
Q 2188 391 2477 730 
Q 2766 1069 2766 1631 
L 2766 1759 
L 2194 1759 
z
M 3341 1997 
L 3341 0 
L 2766 0 
L 2766 531 
Q 2569 213 2275 61 
Q 1981 -91 1556 -91 
Q 1019 -91 701 211 
Q 384 513 384 1019 
Q 384 1609 779 1909 
Q 1175 2209 1959 2209 
L 2766 2209 
L 2766 2266 
Q 2766 2663 2505 2880 
Q 2244 3097 1772 3097 
Q 1472 3097 1187 3025 
Q 903 2953 641 2809 
L 641 3341 
Q 956 3463 1253 3523 
Q 1550 3584 1831 3584 
Q 2591 3584 2966 3190 
Q 3341 2797 3341 1997 
z
" transform="scale(0.015625)"/>
        <path id="DejaVuSans-74" d="M 1172 4494 
L 1172 3500 
L 2356 3500 
L 2356 3053 
L 1172 3053 
L 1172 1153 
Q 1172 725 1289 603 
Q 1406 481 1766 481 
L 2356 481 
L 2356 0 
L 1766 0 
Q 1100 0 847 248 
Q 594 497 594 1153 
L 594 3053 
L 172 3053 
L 172 3500 
L 594 3500 
L 594 4494 
L 1172 4494 
z
" transform="scale(0.015625)"/>
       </defs>
       <use xlink:href="#DejaVuSans-63"/>
       <use xlink:href="#DejaVuSans-72" x="54.980469"/>
       <use xlink:href="#DejaVuSans-65" x="93.84375"/>
       <use xlink:href="#DejaVuSans-61" x="155.367188"/>
       <use xlink:href="#DejaVuSans-74" x="216.646484"/>
       <use xlink:href="#DejaVuSans-65" x="255.855469"/>
      </g>
     </g>
    </g>
    <g id="xtick_2">
     <g id="line2d_2">
      <g>
       <use xlink:href="#m11e224b596" x="147.245455" y="384.48" style="stroke: #000000; stroke-width: 0.8"/>
      </g>
     </g>
     <g id="text_2">
      <!-- Dir -->
      <g transform="translate(141.40983 397.55875) scale(0.08 -0.08)">
       <use xlink:href="#DejaVuSans-44"/>
       <use xlink:href="#DejaVuSans-69" x="77.001953"/>
       <use xlink:href="#DejaVuSans-72" x="104.785156"/>
      </g>
      <!-- stat -->
      <g transform="translate(139.574205 406.517) scale(0.08 -0.08)">
       <defs>
        <path id="DejaVuSans-73" d="M 2834 3397 
L 2834 2853 
Q 2591 2978 2328 3040 
Q 2066 3103 1784 3103 
Q 1356 3103 1142 2972 
Q 928 2841 928 2578 
Q 928 2378 1081 2264 
Q 1234 2150 1697 2047 
L 1894 2003 
Q 2506 1872 2764 1633 
Q 3022 1394 3022 966 
Q 3022 478 2636 193 
Q 2250 -91 1575 -91 
Q 1294 -91 989 -36 
Q 684 19 347 128 
L 347 722 
Q 666 556 975 473 
Q 1284 391 1588 391 
Q 1994 391 2212 530 
Q 2431 669 2431 922 
Q 2431 1156 2273 1281 
Q 2116 1406 1581 1522 
L 1381 1569 
Q 847 1681 609 1914 
Q 372 2147 372 2553 
Q 372 3047 722 3315 
Q 1072 3584 1716 3584 
Q 2034 3584 2315 3537 
Q 2597 3491 2834 3397 
z
" transform="scale(0.015625)"/>
       </defs>
       <use xlink:href="#DejaVuSans-73"/>
       <use xlink:href="#DejaVuSans-74" x="52.099609"/>
       <use xlink:href="#DejaVuSans-61" x="91.308594"/>
       <use xlink:href="#DejaVuSans-74" x="152.587891"/>
      </g>
     </g>
    </g>
    <g id="xtick_3">
     <g id="line2d_3">
      <g>
       <use xlink:href="#m11e224b596" x="189.518182" y="384.48" style="stroke: #000000; stroke-width: 0.8"/>
      </g>
     </g>
     <g id="text_3">
      <!-- Dir -->
      <g transform="translate(183.682557 397.55875) scale(0.08 -0.08)">
       <use xlink:href="#DejaVuSans-44"/>
       <use xlink:href="#DejaVuSans-69" x="77.001953"/>
       <use xlink:href="#DejaVuSans-72" x="104.785156"/>
      </g>
      <!-- rename -->
      <g transform="translate(174.158807 406.517) scale(0.08 -0.08)">
       <defs>
        <path id="DejaVuSans-6e" d="M 3513 2113 
L 3513 0 
L 2938 0 
L 2938 2094 
Q 2938 2591 2744 2837 
Q 2550 3084 2163 3084 
Q 1697 3084 1428 2787 
Q 1159 2491 1159 1978 
L 1159 0 
L 581 0 
L 581 3500 
L 1159 3500 
L 1159 2956 
Q 1366 3272 1645 3428 
Q 1925 3584 2291 3584 
Q 2894 3584 3203 3211 
Q 3513 2838 3513 2113 
z
" transform="scale(0.015625)"/>
        <path id="DejaVuSans-6d" d="M 3328 2828 
Q 3544 3216 3844 3400 
Q 4144 3584 4550 3584 
Q 5097 3584 5394 3201 
Q 5691 2819 5691 2113 
L 5691 0 
L 5113 0 
L 5113 2094 
Q 5113 2597 4934 2840 
Q 4756 3084 4391 3084 
Q 3944 3084 3684 2787 
Q 3425 2491 3425 1978 
L 3425 0 
L 2847 0 
L 2847 2094 
Q 2847 2600 2669 2842 
Q 2491 3084 2119 3084 
Q 1678 3084 1418 2786 
Q 1159 2488 1159 1978 
L 1159 0 
L 581 0 
L 581 3500 
L 1159 3500 
L 1159 2956 
Q 1356 3278 1631 3431 
Q 1906 3584 2284 3584 
Q 2666 3584 2933 3390 
Q 3200 3197 3328 2828 
z
" transform="scale(0.015625)"/>
       </defs>
       <use xlink:href="#DejaVuSans-72"/>
       <use xlink:href="#DejaVuSans-65" x="38.863281"/>
       <use xlink:href="#DejaVuSans-6e" x="100.386719"/>
       <use xlink:href="#DejaVuSans-61" x="163.765625"/>
       <use xlink:href="#DejaVuSans-6d" x="225.044922"/>
       <use xlink:href="#DejaVuSans-65" x="322.457031"/>
      </g>
     </g>
    </g>
    <g id="xtick_4">
     <g id="line2d_4">
      <g>
       <use xlink:href="#m11e224b596" x="231.790909" y="384.48" style="stroke: #000000; stroke-width: 0.8"/>
      </g>
     </g>
     <g id="text_4">
      <!-- Dir -->
      <g transform="translate(225.955284 397.55875) scale(0.08 -0.08)">
       <use xlink:href="#DejaVuSans-44"/>
       <use xlink:href="#DejaVuSans-69" x="77.001953"/>
       <use xlink:href="#DejaVuSans-72" x="104.785156"/>
      </g>
      <!-- remove -->
      <g transform="translate(216.602784 406.517) scale(0.08 -0.08)">
       <defs>
        <path id="DejaVuSans-6f" d="M 1959 3097 
Q 1497 3097 1228 2736 
Q 959 2375 959 1747 
Q 959 1119 1226 758 
Q 1494 397 1959 397 
Q 2419 397 2687 759 
Q 2956 1122 2956 1747 
Q 2956 2369 2687 2733 
Q 2419 3097 1959 3097 
z
M 1959 3584 
Q 2709 3584 3137 3096 
Q 3566 2609 3566 1747 
Q 3566 888 3137 398 
Q 2709 -91 1959 -91 
Q 1206 -91 779 398 
Q 353 888 353 1747 
Q 353 2609 779 3096 
Q 1206 3584 1959 3584 
z
" transform="scale(0.015625)"/>
        <path id="DejaVuSans-76" d="M 191 3500 
L 800 3500 
L 1894 563 
L 2988 3500 
L 3597 3500 
L 2284 0 
L 1503 0 
L 191 3500 
z
" transform="scale(0.015625)"/>
       </defs>
       <use xlink:href="#DejaVuSans-72"/>
       <use xlink:href="#DejaVuSans-65" x="38.863281"/>
       <use xlink:href="#DejaVuSans-6d" x="100.386719"/>
       <use xlink:href="#DejaVuSans-6f" x="197.798828"/>
       <use xlink:href="#DejaVuSans-76" x="258.980469"/>
       <use xlink:href="#DejaVuSans-65" x="318.160156"/>
      </g>
     </g>
    </g>
    <g id="xtick_5">
     <g id="line2d_5">
      <g>
       <use xlink:href="#m11e224b596" x="274.063636" y="384.48" style="stroke: #000000; stroke-width: 0.8"/>
      </g>
     </g>
     <g id="text_5">
      <!-- File -->
      <g transform="translate(267.369261 397.55875) scale(0.08 -0.08)">
       <defs>
        <path id="DejaVuSans-46" d="M 628 4666 
L 3309 4666 
L 3309 4134 
L 1259 4134 
L 1259 2759 
L 3109 2759 
L 3109 2228 
L 1259 2228 
L 1259 0 
L 628 0 
L 628 4666 
z
" transform="scale(0.015625)"/>
        <path id="DejaVuSans-6c" d="M 603 4863 
L 1178 4863 
L 1178 0 
L 603 0 
L 603 4863 
z
" transform="scale(0.015625)"/>
       </defs>
       <use xlink:href="#DejaVuSans-46"/>
       <use xlink:href="#DejaVuSans-69" x="50.269531"/>
       <use xlink:href="#DejaVuSans-6c" x="78.052734"/>
       <use xlink:href="#DejaVuSans-65" x="105.835938"/>
      </g>
      <!-- create -->
      <g transform="translate(261.368011 406.517) scale(0.08 -0.08)">
       <use xlink:href="#DejaVuSans-63"/>
       <use xlink:href="#DejaVuSans-72" x="54.980469"/>
       <use xlink:href="#DejaVuSans-65" x="93.84375"/>
       <use xlink:href="#DejaVuSans-61" x="155.367188"/>
       <use xlink:href="#DejaVuSans-74" x="216.646484"/>
       <use xlink:href="#DejaVuSans-65" x="255.855469"/>
      </g>
     </g>
    </g>
    <g id="xtick_6">
     <g id="line2d_6">
      <g>
       <use xlink:href="#m11e224b596" x="316.336364" y="384.48" style="stroke: #000000; stroke-width: 0.8"/>
      </g>
     </g>
     <g id="text_6">
      <!-- File -->
      <g transform="translate(309.641989 397.55875) scale(0.08 -0.08)">
       <use xlink:href="#DejaVuSans-46"/>
       <use xlink:href="#DejaVuSans-69" x="50.269531"/>
       <use xlink:href="#DejaVuSans-6c" x="78.052734"/>
       <use xlink:href="#DejaVuSans-65" x="105.835938"/>
      </g>
      <!-- stat -->
      <g transform="translate(308.665114 406.517) scale(0.08 -0.08)">
       <use xlink:href="#DejaVuSans-73"/>
       <use xlink:href="#DejaVuSans-74" x="52.099609"/>
       <use xlink:href="#DejaVuSans-61" x="91.308594"/>
       <use xlink:href="#DejaVuSans-74" x="152.587891"/>
      </g>
     </g>
    </g>
    <g id="xtick_7">
     <g id="line2d_7">
      <g>
       <use xlink:href="#m11e224b596" x="358.609091" y="384.48" style="stroke: #000000; stroke-width: 0.8"/>
      </g>
     </g>
     <g id="text_7">
      <!-- File -->
      <g transform="translate(351.914716 397.55875) scale(0.08 -0.08)">
       <use xlink:href="#DejaVuSans-46"/>
       <use xlink:href="#DejaVuSans-69" x="50.269531"/>
       <use xlink:href="#DejaVuSans-6c" x="78.052734"/>
       <use xlink:href="#DejaVuSans-65" x="105.835938"/>
      </g>
      <!-- read -->
      <g transform="translate(349.602841 406.517) scale(0.08 -0.08)">
       <defs>
        <path id="DejaVuSans-64" d="M 2906 2969 
L 2906 4863 
L 3481 4863 
L 3481 0 
L 2906 0 
L 2906 525 
Q 2725 213 2448 61 
Q 2172 -91 1784 -91 
Q 1150 -91 751 415 
Q 353 922 353 1747 
Q 353 2572 751 3078 
Q 1150 3584 1784 3584 
Q 2172 3584 2448 3432 
Q 2725 3281 2906 2969 
z
M 947 1747 
Q 947 1113 1208 752 
Q 1469 391 1925 391 
Q 2381 391 2643 752 
Q 2906 1113 2906 1747 
Q 2906 2381 2643 2742 
Q 2381 3103 1925 3103 
Q 1469 3103 1208 2742 
Q 947 2381 947 1747 
z
" transform="scale(0.015625)"/>
       </defs>
       <use xlink:href="#DejaVuSans-72"/>
       <use xlink:href="#DejaVuSans-65" x="38.863281"/>
       <use xlink:href="#DejaVuSans-61" x="100.386719"/>
       <use xlink:href="#DejaVuSans-64" x="161.666016"/>
      </g>
     </g>
    </g>
    <g id="xtick_8">
     <g id="line2d_8">
      <g>
       <use xlink:href="#m11e224b596" x="400.881818" y="384.48" style="stroke: #000000; stroke-width: 0.8"/>
      </g>
     </g>
     <g id="text_8">
      <!-- File -->
      <g transform="translate(394.187443 397.55875) scale(0.08 -0.08)">
       <use xlink:href="#DejaVuSans-46"/>
       <use xlink:href="#DejaVuSans-69" x="50.269531"/>
       <use xlink:href="#DejaVuSans-6c" x="78.052734"/>
       <use xlink:href="#DejaVuSans-65" x="105.835938"/>
      </g>
      <!-- remove -->
      <g transform="translate(385.693693 406.517) scale(0.08 -0.08)">
       <use xlink:href="#DejaVuSans-72"/>
       <use xlink:href="#DejaVuSans-65" x="38.863281"/>
       <use xlink:href="#DejaVuSans-6d" x="100.386719"/>
       <use xlink:href="#DejaVuSans-6f" x="197.798828"/>
       <use xlink:href="#DejaVuSans-76" x="258.980469"/>
       <use xlink:href="#DejaVuSans-65" x="318.160156"/>
      </g>
     </g>
    </g>
    <g id="xtick_9">
     <g id="line2d_9">
      <g>
       <use xlink:href="#m11e224b596" x="443.154545" y="384.48" style="stroke: #000000; stroke-width: 0.8"/>
      </g>
     </g>
     <g id="text_9">
      <!-- Tree -->
      <g transform="translate(434.824545 397.55875) scale(0.08 -0.08)">
       <defs>
        <path id="DejaVuSans-54" d="M -19 4666 
L 3928 4666 
L 3928 4134 
L 2272 4134 
L 2272 0 
L 1638 0 
L 1638 4134 
L -19 4134 
L -19 4666 
z
" transform="scale(0.015625)"/>
       </defs>
       <use xlink:href="#DejaVuSans-54"/>
       <use xlink:href="#DejaVuSans-72" x="46.333984"/>
       <use xlink:href="#DejaVuSans-65" x="85.197266"/>
       <use xlink:href="#DejaVuSans-65" x="146.720703"/>
      </g>
      <!-- create -->
      <g transform="translate(430.45892 406.517) scale(0.08 -0.08)">
       <use xlink:href="#DejaVuSans-63"/>
       <use xlink:href="#DejaVuSans-72" x="54.980469"/>
       <use xlink:href="#DejaVuSans-65" x="93.84375"/>
       <use xlink:href="#DejaVuSans-61" x="155.367188"/>
       <use xlink:href="#DejaVuSans-74" x="216.646484"/>
       <use xlink:href="#DejaVuSans-65" x="255.855469"/>
      </g>
     </g>
    </g>
    <g id="xtick_10">
     <g id="line2d_10">
      <g>
       <use xlink:href="#m11e224b596" x="485.427273" y="384.48" style="stroke: #000000; stroke-width: 0.8"/>
      </g>
     </g>
     <g id="text_10">
      <!-- Tree -->
      <g transform="translate(477.097273 397.55875) scale(0.08 -0.08)">
       <use xlink:href="#DejaVuSans-54"/>
       <use xlink:href="#DejaVuSans-72" x="46.333984"/>
       <use xlink:href="#DejaVuSans-65" x="85.197266"/>
       <use xlink:href="#DejaVuSans-65" x="146.720703"/>
      </g>
      <!-- remove -->
      <g transform="translate(470.239148 406.517) scale(0.08 -0.08)">
       <use xlink:href="#DejaVuSans-72"/>
       <use xlink:href="#DejaVuSans-65" x="38.863281"/>
       <use xlink:href="#DejaVuSans-6d" x="100.386719"/>
       <use xlink:href="#DejaVuSans-6f" x="197.798828"/>
       <use xlink:href="#DejaVuSans-76" x="258.980469"/>
       <use xlink:href="#DejaVuSans-65" x="318.160156"/>
      </g>
     </g>
    </g>
   </g>
   <g id="matplotlib.axis_2">
    <g id="ytick_1">
     <g id="line2d_11">
      <defs>
       <path id="me916dc454a" d="M 0 0 
L -3.5 0 
" style="stroke: #000000; stroke-width: 0.8"/>
      </defs>
      <g>
       <use xlink:href="#me916dc454a" x="72" y="308.424085" style="stroke: #000000; stroke-width: 0.8"/>
      </g>
     </g>
     <g id="text_11">
      <!-- $\mathdefault{10^{0}}$ -->
      <g transform="translate(47.4 312.223303) scale(0.1 -0.1)">
       <defs>
        <path id="DejaVuSans-31" d="M 794 531 
L 1825 531 
L 1825 4091 
L 703 3866 
L 703 4441 
L 1819 4666 
L 2450 4666 
L 2450 531 
L 3481 531 
L 3481 0 
L 794 0 
L 794 531 
z
" transform="scale(0.015625)"/>
        <path id="DejaVuSans-30" d="M 2034 4250 
Q 1547 4250 1301 3770 
Q 1056 3291 1056 2328 
Q 1056 1369 1301 889 
Q 1547 409 2034 409 
Q 2525 409 2770 889 
Q 3016 1369 3016 2328 
Q 3016 3291 2770 3770 
Q 2525 4250 2034 4250 
z
M 2034 4750 
Q 2819 4750 3233 4129 
Q 3647 3509 3647 2328 
Q 3647 1150 3233 529 
Q 2819 -91 2034 -91 
Q 1250 -91 836 529 
Q 422 1150 422 2328 
Q 422 3509 836 4129 
Q 1250 4750 2034 4750 
z
" transform="scale(0.015625)"/>
       </defs>
       <use xlink:href="#DejaVuSans-31" transform="translate(0 0.765625)"/>
       <use xlink:href="#DejaVuSans-30" transform="translate(63.623047 0.765625)"/>
       <use xlink:href="#DejaVuSans-30" transform="translate(128.203125 39.046875) scale(0.7)"/>
      </g>
     </g>
    </g>
    <g id="ytick_2">
     <g id="line2d_12">
      <g>
       <use xlink:href="#me916dc454a" x="72" y="136.555835" style="stroke: #000000; stroke-width: 0.8"/>
      </g>
     </g>
     <g id="text_12">
      <!-- $\mathdefault{10^{1}}$ -->
      <g transform="translate(47.4 140.355054) scale(0.1 -0.1)">
       <use xlink:href="#DejaVuSans-31" transform="translate(0 0.684375)"/>
       <use xlink:href="#DejaVuSans-30" transform="translate(63.623047 0.684375)"/>
       <use xlink:href="#DejaVuSans-31" transform="translate(128.203125 38.965625) scale(0.7)"/>
      </g>
     </g>
    </g>
    <g id="ytick_3">
     <g id="line2d_13">
      <defs>
       <path id="m576aeeeaeb" d="M 0 0 
L -2 0 
" style="stroke: #000000; stroke-width: 0.6"/>
      </defs>
      <g>
       <use xlink:href="#m576aeeeaeb" x="72" y="376.817337" style="stroke: #000000; stroke-width: 0.6"/>
      </g>
     </g>
    </g>
    <g id="ytick_4">
     <g id="line2d_14">
      <g>
       <use xlink:href="#m576aeeeaeb" x="72" y="360.161583" style="stroke: #000000; stroke-width: 0.6"/>
      </g>
     </g>
    </g>
    <g id="ytick_5">
     <g id="line2d_15">
      <g>
       <use xlink:href="#m576aeeeaeb" x="72" y="346.552841" style="stroke: #000000; stroke-width: 0.6"/>
      </g>
     </g>
    </g>
    <g id="ytick_6">
     <g id="line2d_16">
      <g>
       <use xlink:href="#m576aeeeaeb" x="72" y="335.046813" style="stroke: #000000; stroke-width: 0.6"/>
      </g>
     </g>
    </g>
    <g id="ytick_7">
     <g id="line2d_17">
      <g>
       <use xlink:href="#m576aeeeaeb" x="72" y="325.079839" style="stroke: #000000; stroke-width: 0.6"/>
      </g>
     </g>
    </g>
    <g id="ytick_8">
     <g id="line2d_18">
      <g>
       <use xlink:href="#m576aeeeaeb" x="72" y="316.288344" style="stroke: #000000; stroke-width: 0.6"/>
      </g>
     </g>
    </g>
    <g id="ytick_9">
     <g id="line2d_19">
      <g>
       <use xlink:href="#m576aeeeaeb" x="72" y="256.686586" style="stroke: #000000; stroke-width: 0.6"/>
      </g>
     </g>
    </g>
    <g id="ytick_10">
     <g id="line2d_20">
      <g>
       <use xlink:href="#m576aeeeaeb" x="72" y="226.42209" style="stroke: #000000; stroke-width: 0.6"/>
      </g>
     </g>
    </g>
    <g id="ytick_11">
     <g id="line2d_21">
      <g>
       <use xlink:href="#m576aeeeaeb" x="72" y="204.949088" style="stroke: #000000; stroke-width: 0.6"/>
      </g>
     </g>
    </g>
    <g id="ytick_12">
     <g id="line2d_22">
      <g>
       <use xlink:href="#m576aeeeaeb" x="72" y="188.293333" style="stroke: #000000; stroke-width: 0.6"/>
      </g>
     </g>
    </g>
    <g id="ytick_13">
     <g id="line2d_23">
      <g>
       <use xlink:href="#m576aeeeaeb" x="72" y="174.684591" style="stroke: #000000; stroke-width: 0.6"/>
      </g>
     </g>
    </g>
    <g id="ytick_14">
     <g id="line2d_24">
      <g>
       <use xlink:href="#m576aeeeaeb" x="72" y="163.178564" style="stroke: #000000; stroke-width: 0.6"/>
      </g>
     </g>
    </g>
    <g id="ytick_15">
     <g id="line2d_25">
      <g>
       <use xlink:href="#m576aeeeaeb" x="72" y="153.211589" style="stroke: #000000; stroke-width: 0.6"/>
      </g>
     </g>
    </g>
    <g id="ytick_16">
     <g id="line2d_26">
      <g>
       <use xlink:href="#m576aeeeaeb" x="72" y="144.420095" style="stroke: #000000; stroke-width: 0.6"/>
      </g>
     </g>
    </g>
    <g id="ytick_17">
     <g id="line2d_27">
      <g>
       <use xlink:href="#m576aeeeaeb" x="72" y="84.818337" style="stroke: #000000; stroke-width: 0.6"/>
      </g>
     </g>
    </g>
    <g id="ytick_18">
     <g id="line2d_28">
      <g>
       <use xlink:href="#m576aeeeaeb" x="72" y="54.55384" style="stroke: #000000; stroke-width: 0.6"/>
      </g>
     </g>
    </g>
    <g id="text_13">
     <!-- Relative performance -->
     <g transform="translate(41.320312 271.935781) rotate(-90) scale(0.1 -0.1)">
      <defs>
       <path id="DejaVuSans-52" d="M 2841 2188 
Q 3044 2119 3236 1894 
Q 3428 1669 3622 1275 
L 4263 0 
L 3584 0 
L 2988 1197 
Q 2756 1666 2539 1819 
Q 2322 1972 1947 1972 
L 1259 1972 
L 1259 0 
L 628 0 
L 628 4666 
L 2053 4666 
Q 2853 4666 3247 4331 
Q 3641 3997 3641 3322 
Q 3641 2881 3436 2590 
Q 3231 2300 2841 2188 
z
M 1259 4147 
L 1259 2491 
L 2053 2491 
Q 2509 2491 2742 2702 
Q 2975 2913 2975 3322 
Q 2975 3731 2742 3939 
Q 2509 4147 2053 4147 
L 1259 4147 
z
" transform="scale(0.015625)"/>
       <path id="DejaVuSans-20" transform="scale(0.015625)"/>
       <path id="DejaVuSans-70" d="M 1159 525 
L 1159 -1331 
L 581 -1331 
L 581 3500 
L 1159 3500 
L 1159 2969 
Q 1341 3281 1617 3432 
Q 1894 3584 2278 3584 
Q 2916 3584 3314 3078 
Q 3713 2572 3713 1747 
Q 3713 922 3314 415 
Q 2916 -91 2278 -91 
Q 1894 -91 1617 61 
Q 1341 213 1159 525 
z
M 3116 1747 
Q 3116 2381 2855 2742 
Q 2594 3103 2138 3103 
Q 1681 3103 1420 2742 
Q 1159 2381 1159 1747 
Q 1159 1113 1420 752 
Q 1681 391 2138 391 
Q 2594 391 2855 752 
Q 3116 1113 3116 1747 
z
" transform="scale(0.015625)"/>
       <path id="DejaVuSans-66" d="M 2375 4863 
L 2375 4384 
L 1825 4384 
Q 1516 4384 1395 4259 
Q 1275 4134 1275 3809 
L 1275 3500 
L 2222 3500 
L 2222 3053 
L 1275 3053 
L 1275 0 
L 697 0 
L 697 3053 
L 147 3053 
L 147 3500 
L 697 3500 
L 697 3744 
Q 697 4328 969 4595 
Q 1241 4863 1831 4863 
L 2375 4863 
z
" transform="scale(0.015625)"/>
      </defs>
      <use xlink:href="#DejaVuSans-52"/>
      <use xlink:href="#DejaVuSans-65" x="64.982422"/>
      <use xlink:href="#DejaVuSans-6c" x="126.505859"/>
      <use xlink:href="#DejaVuSans-61" x="154.289062"/>
      <use xlink:href="#DejaVuSans-74" x="215.568359"/>
      <use xlink:href="#DejaVuSans-69" x="254.777344"/>
      <use xlink:href="#DejaVuSans-76" x="282.560547"/>
      <use xlink:href="#DejaVuSans-65" x="341.740234"/>
      <use xlink:href="#DejaVuSans-20" x="403.263672"/>
      <use xlink:href="#DejaVuSans-70" x="435.050781"/>
      <use xlink:href="#DejaVuSans-65" x="498.527344"/>
      <use xlink:href="#DejaVuSans-72" x="560.050781"/>
      <use xlink:href="#DejaVuSans-66" x="601.164062"/>
      <use xlink:href="#DejaVuSans-6f" x="636.369141"/>
      <use xlink:href="#DejaVuSans-72" x="697.550781"/>
      <use xlink:href="#DejaVuSans-6d" x="736.914062"/>
      <use xlink:href="#DejaVuSans-61" x="834.326172"/>
      <use xlink:href="#DejaVuSans-6e" x="895.605469"/>
      <use xlink:href="#DejaVuSans-63" x="958.984375"/>
      <use xlink:href="#DejaVuSans-65" x="1013.964844"/>
     </g>
    </g>
   </g>
   <g id="patch_33">
    <path d="M 72 384.48 
L 72 51.84 
" style="fill: none; stroke: #000000; stroke-width: 0.8; stroke-linejoin: miter; stroke-linecap: square"/>
   </g>
   <g id="patch_34">
    <path d="M 518.4 384.48 
L 518.4 51.84 
" style="fill: none; stroke: #000000; stroke-width: 0.8; stroke-linejoin: miter; stroke-linecap: square"/>
   </g>
   <g id="patch_35">
    <path d="M 72 384.48 
L 518.4 384.48 
" style="fill: none; stroke: #000000; stroke-width: 0.8; stroke-linejoin: miter; stroke-linecap: square"/>
   </g>
   <g id="patch_36">
    <path d="M 72 51.84 
L 518.4 51.84 
" style="fill: none; stroke: #000000; stroke-width: 0.8; stroke-linejoin: miter; stroke-linecap: square"/>
   </g>
   <g id="text_14">
    <!-- mdtest performance -->
    <g transform="translate(233.690625 45.84) scale(0.12 -0.12)">
     <use xlink:href="#DejaVuSans-6d"/>
     <use xlink:href="#DejaVuSans-64" x="97.412109"/>
     <use xlink:href="#DejaVuSans-74" x="160.888672"/>
     <use xlink:href="#DejaVuSans-65" x="200.097656"/>
     <use xlink:href="#DejaVuSans-73" x="261.621094"/>
     <use xlink:href="#DejaVuSans-74" x="313.720703"/>
     <use xlink:href="#DejaVuSans-20" x="352.929688"/>
     <use xlink:href="#DejaVuSans-70" x="384.716797"/>
     <use xlink:href="#DejaVuSans-65" x="448.193359"/>
     <use xlink:href="#DejaVuSans-72" x="509.716797"/>
     <use xlink:href="#DejaVuSans-66" x="550.830078"/>
     <use xlink:href="#DejaVuSans-6f" x="586.035156"/>
     <use xlink:href="#DejaVuSans-72" x="647.216797"/>
     <use xlink:href="#DejaVuSans-6d" x="686.580078"/>
     <use xlink:href="#DejaVuSans-61" x="783.992188"/>
     <use xlink:href="#DejaVuSans-6e" x="845.271484"/>
     <use xlink:href="#DejaVuSans-63" x="908.650391"/>
     <use xlink:href="#DejaVuSans-65" x="963.630859"/>
    </g>
   </g>
   <g id="legend_1">
    <g id="patch_37">
     <path d="M 457.220312 103.874375 
L 511.4 103.874375 
Q 513.4 103.874375 513.4 101.874375 
L 513.4 58.84 
Q 513.4 56.84 511.4 56.84 
L 457.220312 56.84 
Q 455.220312 56.84 455.220312 58.84 
L 455.220312 101.874375 
Q 455.220312 103.874375 457.220312 103.874375 
z
" style="fill: #ffffff; opacity: 0.8; stroke: #cccccc; stroke-linejoin: miter"/>
    </g>
    <g id="patch_38">
     <path d="M 459.220312 68.438437 
L 479.220312 68.438437 
L 479.220312 61.438437 
L 459.220312 61.438437 
z
" style="fill: #264653"/>
    </g>
    <g id="text_15">
     <!-- dbfs -->
     <g transform="translate(487.220312 68.438437) scale(0.1 -0.1)">
      <defs>
       <path id="DejaVuSans-62" d="M 3116 1747 
Q 3116 2381 2855 2742 
Q 2594 3103 2138 3103 
Q 1681 3103 1420 2742 
Q 1159 2381 1159 1747 
Q 1159 1113 1420 752 
Q 1681 391 2138 391 
Q 2594 391 2855 752 
Q 3116 1113 3116 1747 
z
M 1159 2969 
Q 1341 3281 1617 3432 
Q 1894 3584 2278 3584 
Q 2916 3584 3314 3078 
Q 3713 2572 3713 1747 
Q 3713 922 3314 415 
Q 2916 -91 2278 -91 
Q 1894 -91 1617 61 
Q 1341 213 1159 525 
L 1159 0 
L 581 0 
L 581 4863 
L 1159 4863 
L 1159 2969 
z
" transform="scale(0.015625)"/>
      </defs>
      <use xlink:href="#DejaVuSans-64"/>
      <use xlink:href="#DejaVuSans-62" x="63.476562"/>
      <use xlink:href="#DejaVuSans-66" x="126.953125"/>
      <use xlink:href="#DejaVuSans-73" x="162.158203"/>
     </g>
    </g>
    <g id="patch_39">
     <path d="M 459.220312 83.116562 
L 479.220312 83.116562 
L 479.220312 76.116562 
L 459.220312 76.116562 
z
" style="fill: #e66f51"/>
    </g>
    <g id="text_16">
     <!-- ext4 -->
     <g transform="translate(487.220312 83.116562) scale(0.1 -0.1)">
      <defs>
       <path id="DejaVuSans-78" d="M 3513 3500 
L 2247 1797 
L 3578 0 
L 2900 0 
L 1881 1375 
L 863 0 
L 184 0 
L 1544 1831 
L 300 3500 
L 978 3500 
L 1906 2253 
L 2834 3500 
L 3513 3500 
z
" transform="scale(0.015625)"/>
       <path id="DejaVuSans-34" d="M 2419 4116 
L 825 1625 
L 2419 1625 
L 2419 4116 
z
M 2253 4666 
L 3047 4666 
L 3047 1625 
L 3713 1625 
L 3713 1100 
L 3047 1100 
L 3047 0 
L 2419 0 
L 2419 1100 
L 313 1100 
L 313 1709 
L 2253 4666 
z
" transform="scale(0.015625)"/>
      </defs>
      <use xlink:href="#DejaVuSans-65"/>
      <use xlink:href="#DejaVuSans-78" x="59.773438"/>
      <use xlink:href="#DejaVuSans-74" x="118.953125"/>
      <use xlink:href="#DejaVuSans-34" x="158.162109"/>
     </g>
    </g>
    <g id="patch_40">
     <path d="M 459.220312 97.794687 
L 479.220312 97.794687 
L 479.220312 90.794687 
L 459.220312 90.794687 
z
" style="fill: #e9c46b"/>
    </g>
    <g id="text_17">
     <!-- ext3 -->
     <g transform="translate(487.220312 97.794687) scale(0.1 -0.1)">
      <defs>
       <path id="DejaVuSans-33" d="M 2597 2516 
Q 3050 2419 3304 2112 
Q 3559 1806 3559 1356 
Q 3559 666 3084 287 
Q 2609 -91 1734 -91 
Q 1441 -91 1130 -33 
Q 819 25 488 141 
L 488 750 
Q 750 597 1062 519 
Q 1375 441 1716 441 
Q 2309 441 2620 675 
Q 2931 909 2931 1356 
Q 2931 1769 2642 2001 
Q 2353 2234 1838 2234 
L 1294 2234 
L 1294 2753 
L 1863 2753 
Q 2328 2753 2575 2939 
Q 2822 3125 2822 3475 
Q 2822 3834 2567 4026 
Q 2313 4219 1838 4219 
Q 1578 4219 1281 4162 
Q 984 4106 628 3988 
L 628 4550 
Q 988 4650 1302 4700 
Q 1616 4750 1894 4750 
Q 2613 4750 3031 4423 
Q 3450 4097 3450 3541 
Q 3450 3153 3228 2886 
Q 3006 2619 2597 2516 
z
" transform="scale(0.015625)"/>
      </defs>
      <use xlink:href="#DejaVuSans-65"/>
      <use xlink:href="#DejaVuSans-78" x="59.773438"/>
      <use xlink:href="#DejaVuSans-74" x="118.953125"/>
      <use xlink:href="#DejaVuSans-33" x="158.162109"/>
     </g>
    </g>
   </g>
  </g>
 </g>
 <defs>
  <clipPath id="ped96039b7e">
   <rect x="72" y="51.84" width="446.4" height="332.64"/>
  </clipPath>
 </defs>
</svg>
