<?xml version="1.0" encoding="utf-8" standalone="no"?>
<!DOCTYPE svg PUBLIC "-//W3C//DTD SVG 1.1//EN"
  "http://www.w3.org/Graphics/SVG/1.1/DTD/svg11.dtd">
<svg xmlns:xlink="http://www.w3.org/1999/xlink" width="576pt" height="432pt" viewBox="0 0 576 432" xmlns="http://www.w3.org/2000/svg" version="1.1">
 <metadata>
  <rdf:RDF xmlns:dc="http://purl.org/dc/elements/1.1/" xmlns:cc="http://creativecommons.org/ns#" xmlns:rdf="http://www.w3.org/1999/02/22-rdf-syntax-ns#">
   <cc:Work>
    <dc:type rdf:resource="http://purl.org/dc/dcmitype/StillImage"/>
    <dc:date>2023-05-04T09:09:48.854393</dc:date>
    <dc:format>image/svg+xml</dc:format>
    <dc:creator>
     <cc:Agent>
      <dc:title>Matplotlib v3.7.1, https://matplotlib.org/</dc:title>
     </cc:Agent>
    </dc:creator>
   </cc:Work>
  </rdf:RDF>
 </metadata>
 <defs>
  <style type="text/css">*{stroke-linejoin: round; stroke-linecap: butt}</style>
 </defs>
 <g id="figure_1">
  <g id="patch_1">
   <path d="M 0 432 
L 576 432 
L 576 0 
L 0 0 
z
" style="fill: #ffffff"/>
  </g>
  <g id="axes_1">
   <g id="patch_2">
    <path d="M 72 384.48 
L 518.4 384.48 
L 518.4 51.84 
L 72 51.84 
z
" style="fill: #ffffff"/>
   </g>
   <g id="patch_3">
    <path d="M 92.290909 384.48 
L 100.572913 384.48 
L 100.572913 375.856674 
L 92.290909 375.856674 
z
" clip-path="url(#pbc1d969bda)" style="fill: #1f77b4"/>
   </g>
   <g id="patch_4">
    <path d="M 133.700928 384.48 
L 141.982931 384.48 
L 141.982931 134.249373 
L 133.700928 134.249373 
z
" clip-path="url(#pbc1d969bda)" style="fill: #1f77b4"/>
   </g>
   <g id="patch_5">
    <path d="M 175.110946 384.48 
L 183.39295 384.48 
L 183.39295 376.443778 
L 175.110946 376.443778 
z
" clip-path="url(#pbc1d969bda)" style="fill: #1f77b4"/>
   </g>
   <g id="patch_6">
    <path d="M 216.520965 384.48 
L 224.802968 384.48 
L 224.802968 372.414023 
L 216.520965 372.414023 
z
" clip-path="url(#pbc1d969bda)" style="fill: #1f77b4"/>
   </g>
   <g id="patch_7">
    <path d="M 257.930983 384.48 
L 266.212987 384.48 
L 266.212987 376.774034 
L 257.930983 376.774034 
z
" clip-path="url(#pbc1d969bda)" style="fill: #1f77b4"/>
   </g>
   <g id="patch_8">
    <path d="M 299.341002 384.48 
L 307.623006 384.48 
L 307.623006 185.469928 
L 299.341002 185.469928 
z
" clip-path="url(#pbc1d969bda)" style="fill: #1f77b4"/>
   </g>
   <g id="patch_9">
    <path d="M 340.75102 384.48 
L 349.033024 384.48 
L 349.033024 349.53697 
L 340.75102 349.53697 
z
" clip-path="url(#pbc1d969bda)" style="fill: #1f77b4"/>
   </g>
   <g id="patch_10">
    <path d="M 382.161039 384.48 
L 390.443043 384.48 
L 390.443043 372.082881 
L 382.161039 372.082881 
z
" clip-path="url(#pbc1d969bda)" style="fill: #1f77b4"/>
   </g>
   <g id="patch_11">
    <path d="M 423.571058 384.48 
L 431.853061 384.48 
L 431.853061 377.673626 
L 423.571058 377.673626 
z
" clip-path="url(#pbc1d969bda)" style="fill: #1f77b4"/>
   </g>
   <g id="patch_12">
    <path d="M 464.981076 384.48 
L 473.26308 384.48 
L 473.26308 374.972465 
L 464.981076 374.972465 
z
" clip-path="url(#pbc1d969bda)" style="fill: #1f77b4"/>
   </g>
   <g id="patch_13">
    <path d="M 100.572913 384.48 
L 108.854917 384.48 
L 108.854917 379.39313 
L 100.572913 379.39313 
z
" clip-path="url(#pbc1d969bda)" style="fill: #ff7f0e"/>
   </g>
   <g id="patch_14">
    <path d="M 141.982931 384.48 
L 150.264935 384.48 
L 150.264935 206.012903 
L 141.982931 206.012903 
z
" clip-path="url(#pbc1d969bda)" style="fill: #ff7f0e"/>
   </g>
   <g id="patch_15">
    <path d="M 183.39295 384.48 
L 191.674954 384.48 
L 191.674954 384.060912 
L 183.39295 384.060912 
z
" clip-path="url(#pbc1d969bda)" style="fill: #ff7f0e"/>
   </g>
   <g id="patch_16">
    <path d="M 224.802968 384.48 
L 233.084972 384.48 
L 233.084972 374.843212 
L 224.802968 374.843212 
z
" clip-path="url(#pbc1d969bda)" style="fill: #ff7f0e"/>
   </g>
   <g id="patch_17">
    <path d="M 266.212987 384.48 
L 274.494991 384.48 
L 274.494991 377.716498 
L 266.212987 377.716498 
z
" clip-path="url(#pbc1d969bda)" style="fill: #ff7f0e"/>
   </g>
   <g id="patch_18">
    <path d="M 307.623006 384.48 
L 315.905009 384.48 
L 315.905009 178.665863 
L 307.623006 178.665863 
z
" clip-path="url(#pbc1d969bda)" style="fill: #ff7f0e"/>
   </g>
   <g id="patch_19">
    <path d="M 349.033024 384.48 
L 357.315028 384.48 
L 357.315028 361.936132 
L 349.033024 361.936132 
z
" clip-path="url(#pbc1d969bda)" style="fill: #ff7f0e"/>
   </g>
   <g id="patch_20">
    <path d="M 390.443043 384.48 
L 398.725046 384.48 
L 398.725046 371.91135 
L 390.443043 371.91135 
z
" clip-path="url(#pbc1d969bda)" style="fill: #ff7f0e"/>
   </g>
   <g id="patch_21">
    <path d="M 431.853061 384.48 
L 440.135065 384.48 
L 440.135065 379.335922 
L 431.853061 379.335922 
z
" clip-path="url(#pbc1d969bda)" style="fill: #ff7f0e"/>
   </g>
   <g id="patch_22">
    <path d="M 473.26308 384.48 
L 481.545083 384.48 
L 481.545083 371.279891 
L 473.26308 371.279891 
z
" clip-path="url(#pbc1d969bda)" style="fill: #ff7f0e"/>
   </g>
   <g id="patch_23">
    <path d="M 108.854917 384.48 
L 117.13692 384.48 
L 117.13692 369.841781 
L 108.854917 369.841781 
z
" clip-path="url(#pbc1d969bda)" style="fill: #2ca02c"/>
   </g>
   <g id="patch_24">
    <path d="M 150.264935 384.48 
L 158.546939 384.48 
L 158.546939 82.08 
L 150.264935 82.08 
z
" clip-path="url(#pbc1d969bda)" style="fill: #2ca02c"/>
   </g>
   <g id="patch_25">
    <path d="M 191.674954 384.48 
L 199.956957 384.48 
L 199.956957 383.819895 
L 191.674954 383.819895 
z
" clip-path="url(#pbc1d969bda)" style="fill: #2ca02c"/>
   </g>
   <g id="patch_26">
    <path d="M 233.084972 384.48 
L 241.366976 384.48 
L 241.366976 364.712739 
L 233.084972 364.712739 
z
" clip-path="url(#pbc1d969bda)" style="fill: #2ca02c"/>
   </g>
   <g id="patch_27">
    <path d="M 274.494991 384.48 
L 282.776994 384.48 
L 282.776994 376.071793 
L 274.494991 376.071793 
z
" clip-path="url(#pbc1d969bda)" style="fill: #2ca02c"/>
   </g>
   <g id="patch_28">
    <path d="M 315.905009 384.48 
L 324.187013 384.48 
L 324.187013 153.087688 
L 315.905009 153.087688 
z
" clip-path="url(#pbc1d969bda)" style="fill: #2ca02c"/>
   </g>
   <g id="patch_29">
    <path d="M 357.315028 384.48 
L 365.597032 384.48 
L 365.597032 346.257181 
L 357.315028 346.257181 
z
" clip-path="url(#pbc1d969bda)" style="fill: #2ca02c"/>
   </g>
   <g id="patch_30">
    <path d="M 398.725046 384.48 
L 407.00705 384.48 
L 407.00705 355.462772 
L 398.725046 355.462772 
z
" clip-path="url(#pbc1d969bda)" style="fill: #2ca02c"/>
   </g>
   <g id="patch_31">
    <path d="M 440.135065 384.48 
L 448.417069 384.48 
L 448.417069 375.114707 
L 440.135065 375.114707 
z
" clip-path="url(#pbc1d969bda)" style="fill: #2ca02c"/>
   </g>
   <g id="patch_32">
    <path d="M 481.545083 384.48 
L 489.827087 384.48 
L 489.827087 356.054163 
L 481.545083 356.054163 
z
" clip-path="url(#pbc1d969bda)" style="fill: #2ca02c"/>
   </g>
   <g id="patch_33">
    <path d="M 117.13692 384.48 
L 125.418924 384.48 
L 125.418924 384.312348 
L 117.13692 384.312348 
z
" clip-path="url(#pbc1d969bda)" style="fill: #d62728"/>
   </g>
   <g id="patch_34">
    <path d="M 158.546939 384.48 
L 166.828942 384.48 
L 166.828942 368.351888 
L 158.546939 368.351888 
z
" clip-path="url(#pbc1d969bda)" style="fill: #d62728"/>
   </g>
   <g id="patch_35">
    <path d="M 199.956957 384.48 
L 208.238961 384.48 
L 208.238961 384.269052 
L 199.956957 384.269052 
z
" clip-path="url(#pbc1d969bda)" style="fill: #d62728"/>
   </g>
   <g id="patch_36">
    <path d="M 241.366976 384.48 
L 249.64898 384.48 
L 249.64898 384.267834 
L 241.366976 384.267834 
z
" clip-path="url(#pbc1d969bda)" style="fill: #d62728"/>
   </g>
   <g id="patch_37">
    <path d="M 282.776994 384.48 
L 291.058998 384.48 
L 291.058998 384.25515 
L 282.776994 384.25515 
z
" clip-path="url(#pbc1d969bda)" style="fill: #d62728"/>
   </g>
   <g id="patch_38">
    <path d="M 324.187013 384.48 
L 332.469017 384.48 
L 332.469017 377.258205 
L 324.187013 377.258205 
z
" clip-path="url(#pbc1d969bda)" style="fill: #d62728"/>
   </g>
   <g id="patch_39">
    <path d="M 365.597032 384.48 
L 373.879035 384.48 
L 373.879035 377.520531 
L 365.597032 377.520531 
z
" clip-path="url(#pbc1d969bda)" style="fill: #d62728"/>
   </g>
   <g id="patch_40">
    <path d="M 407.00705 384.48 
L 415.289054 384.48 
L 415.289054 384.429401 
L 407.00705 384.429401 
z
" clip-path="url(#pbc1d969bda)" style="fill: #d62728"/>
   </g>
   <g id="patch_41">
    <path d="M 448.417069 384.48 
L 456.699072 384.48 
L 456.699072 384.394123 
L 448.417069 384.394123 
z
" clip-path="url(#pbc1d969bda)" style="fill: #d62728"/>
   </g>
   <g id="patch_42">
    <path d="M 489.827087 384.48 
L 498.109091 384.48 
L 498.109091 384.263001 
L 489.827087 384.263001 
z
" clip-path="url(#pbc1d969bda)" style="fill: #d62728"/>
   </g>
   <g id="matplotlib.axis_1">
    <g id="xtick_1">
     <g id="line2d_1">
      <defs>
       <path id="mdbcc95cddb" d="M 0 0 
L 0 3.5 
" style="stroke: #000000; stroke-width: 0.8"/>
      </defs>
      <g>
       <use xlink:href="#mdbcc95cddb" x="104.713915" y="384.48" style="stroke: #000000; stroke-width: 0.8"/>
      </g>
     </g>
     <g id="text_1">
      <!-- Dir -->
      <g transform="translate(98.87829 397.55875) scale(0.08 -0.08)">
       <defs>
        <path id="DejaVuSans-44" d="M 1259 4147 
L 1259 519 
L 2022 519 
Q 2988 519 3436 956 
Q 3884 1394 3884 2338 
Q 3884 3275 3436 3711 
Q 2988 4147 2022 4147 
L 1259 4147 
z
M 628 4666 
L 1925 4666 
Q 3281 4666 3915 4102 
Q 4550 3538 4550 2338 
Q 4550 1131 3912 565 
Q 3275 0 1925 0 
L 628 0 
L 628 4666 
z
" transform="scale(0.015625)"/>
        <path id="DejaVuSans-69" d="M 603 3500 
L 1178 3500 
L 1178 0 
L 603 0 
L 603 3500 
z
M 603 4863 
L 1178 4863 
L 1178 4134 
L 603 4134 
L 603 4863 
z
" transform="scale(0.015625)"/>
        <path id="DejaVuSans-72" d="M 2631 2963 
Q 2534 3019 2420 3045 
Q 2306 3072 2169 3072 
Q 1681 3072 1420 2755 
Q 1159 2438 1159 1844 
L 1159 0 
L 581 0 
L 581 3500 
L 1159 3500 
L 1159 2956 
Q 1341 3275 1631 3429 
Q 1922 3584 2338 3584 
Q 2397 3584 2469 3576 
Q 2541 3569 2628 3553 
L 2631 2963 
z
" transform="scale(0.015625)"/>
       </defs>
       <use xlink:href="#DejaVuSans-44"/>
       <use xlink:href="#DejaVuSans-69" x="77.001953"/>
       <use xlink:href="#DejaVuSans-72" x="104.785156"/>
      </g>
      <!-- create -->
      <g transform="translate(92.01829 406.517) scale(0.08 -0.08)">
       <defs>
        <path id="DejaVuSans-63" d="M 3122 3366 
L 3122 2828 
Q 2878 2963 2633 3030 
Q 2388 3097 2138 3097 
Q 1578 3097 1268 2742 
Q 959 2388 959 1747 
Q 959 1106 1268 751 
Q 1578 397 2138 397 
Q 2388 397 2633 464 
Q 2878 531 3122 666 
L 3122 134 
Q 2881 22 2623 -34 
Q 2366 -91 2075 -91 
Q 1284 -91 818 406 
Q 353 903 353 1747 
Q 353 2603 823 3093 
Q 1294 3584 2113 3584 
Q 2378 3584 2631 3529 
Q 2884 3475 3122 3366 
z
" transform="scale(0.015625)"/>
        <path id="DejaVuSans-65" d="M 3597 1894 
L 3597 1613 
L 953 1613 
Q 991 1019 1311 708 
Q 1631 397 2203 397 
Q 2534 397 2845 478 
Q 3156 559 3463 722 
L 3463 178 
Q 3153 47 2828 -22 
Q 2503 -91 2169 -91 
Q 1331 -91 842 396 
Q 353 884 353 1716 
Q 353 2575 817 3079 
Q 1281 3584 2069 3584 
Q 2775 3584 3186 3129 
Q 3597 2675 3597 1894 
z
M 3022 2063 
Q 3016 2534 2758 2815 
Q 2500 3097 2075 3097 
Q 1594 3097 1305 2825 
Q 1016 2553 972 2059 
L 3022 2063 
z
" transform="scale(0.015625)"/>
        <path id="DejaVuSans-61" d="M 2194 1759 
Q 1497 1759 1228 1600 
Q 959 1441 959 1056 
Q 959 750 1161 570 
Q 1363 391 1709 391 
Q 2188 391 2477 730 
Q 2766 1069 2766 1631 
L 2766 1759 
L 2194 1759 
z
M 3341 1997 
L 3341 0 
L 2766 0 
L 2766 531 
Q 2569 213 2275 61 
Q 1981 -91 1556 -91 
Q 1019 -91 701 211 
Q 384 513 384 1019 
Q 384 1609 779 1909 
Q 1175 2209 1959 2209 
L 2766 2209 
L 2766 2266 
Q 2766 2663 2505 2880 
Q 2244 3097 1772 3097 
Q 1472 3097 1187 3025 
Q 903 2953 641 2809 
L 641 3341 
Q 956 3463 1253 3523 
Q 1550 3584 1831 3584 
Q 2591 3584 2966 3190 
Q 3341 2797 3341 1997 
z
" transform="scale(0.015625)"/>
        <path id="DejaVuSans-74" d="M 1172 4494 
L 1172 3500 
L 2356 3500 
L 2356 3053 
L 1172 3053 
L 1172 1153 
Q 1172 725 1289 603 
Q 1406 481 1766 481 
L 2356 481 
L 2356 0 
L 1766 0 
Q 1100 0 847 248 
Q 594 497 594 1153 
L 594 3053 
L 172 3053 
L 172 3500 
L 594 3500 
L 594 4494 
L 1172 4494 
z
" transform="scale(0.015625)"/>
       </defs>
       <use xlink:href="#DejaVuSans-63"/>
       <use xlink:href="#DejaVuSans-72" x="54.980469"/>
       <use xlink:href="#DejaVuSans-65" x="93.84375"/>
       <use xlink:href="#DejaVuSans-61" x="155.367188"/>
       <use xlink:href="#DejaVuSans-74" x="216.646484"/>
       <use xlink:href="#DejaVuSans-65" x="255.855469"/>
      </g>
     </g>
    </g>
    <g id="xtick_2">
     <g id="line2d_2">
      <g>
       <use xlink:href="#mdbcc95cddb" x="146.123933" y="384.48" style="stroke: #000000; stroke-width: 0.8"/>
      </g>
     </g>
     <g id="text_2">
      <!-- Dir -->
      <g transform="translate(140.288308 397.55875) scale(0.08 -0.08)">
       <use xlink:href="#DejaVuSans-44"/>
       <use xlink:href="#DejaVuSans-69" x="77.001953"/>
       <use xlink:href="#DejaVuSans-72" x="104.785156"/>
      </g>
      <!-- stat -->
      <g transform="translate(138.452683 406.517) scale(0.08 -0.08)">
       <defs>
        <path id="DejaVuSans-73" d="M 2834 3397 
L 2834 2853 
Q 2591 2978 2328 3040 
Q 2066 3103 1784 3103 
Q 1356 3103 1142 2972 
Q 928 2841 928 2578 
Q 928 2378 1081 2264 
Q 1234 2150 1697 2047 
L 1894 2003 
Q 2506 1872 2764 1633 
Q 3022 1394 3022 966 
Q 3022 478 2636 193 
Q 2250 -91 1575 -91 
Q 1294 -91 989 -36 
Q 684 19 347 128 
L 347 722 
Q 666 556 975 473 
Q 1284 391 1588 391 
Q 1994 391 2212 530 
Q 2431 669 2431 922 
Q 2431 1156 2273 1281 
Q 2116 1406 1581 1522 
L 1381 1569 
Q 847 1681 609 1914 
Q 372 2147 372 2553 
Q 372 3047 722 3315 
Q 1072 3584 1716 3584 
Q 2034 3584 2315 3537 
Q 2597 3491 2834 3397 
z
" transform="scale(0.015625)"/>
       </defs>
       <use xlink:href="#DejaVuSans-73"/>
       <use xlink:href="#DejaVuSans-74" x="52.099609"/>
       <use xlink:href="#DejaVuSans-61" x="91.308594"/>
       <use xlink:href="#DejaVuSans-74" x="152.587891"/>
      </g>
     </g>
    </g>
    <g id="xtick_3">
     <g id="line2d_3">
      <g>
       <use xlink:href="#mdbcc95cddb" x="187.533952" y="384.48" style="stroke: #000000; stroke-width: 0.8"/>
      </g>
     </g>
     <g id="text_3">
      <!-- Dir -->
      <g transform="translate(181.698327 397.55875) scale(0.08 -0.08)">
       <use xlink:href="#DejaVuSans-44"/>
       <use xlink:href="#DejaVuSans-69" x="77.001953"/>
       <use xlink:href="#DejaVuSans-72" x="104.785156"/>
      </g>
      <!-- rename -->
      <g transform="translate(172.174577 406.517) scale(0.08 -0.08)">
       <defs>
        <path id="DejaVuSans-6e" d="M 3513 2113 
L 3513 0 
L 2938 0 
L 2938 2094 
Q 2938 2591 2744 2837 
Q 2550 3084 2163 3084 
Q 1697 3084 1428 2787 
Q 1159 2491 1159 1978 
L 1159 0 
L 581 0 
L 581 3500 
L 1159 3500 
L 1159 2956 
Q 1366 3272 1645 3428 
Q 1925 3584 2291 3584 
Q 2894 3584 3203 3211 
Q 3513 2838 3513 2113 
z
" transform="scale(0.015625)"/>
        <path id="DejaVuSans-6d" d="M 3328 2828 
Q 3544 3216 3844 3400 
Q 4144 3584 4550 3584 
Q 5097 3584 5394 3201 
Q 5691 2819 5691 2113 
L 5691 0 
L 5113 0 
L 5113 2094 
Q 5113 2597 4934 2840 
Q 4756 3084 4391 3084 
Q 3944 3084 3684 2787 
Q 3425 2491 3425 1978 
L 3425 0 
L 2847 0 
L 2847 2094 
Q 2847 2600 2669 2842 
Q 2491 3084 2119 3084 
Q 1678 3084 1418 2786 
Q 1159 2488 1159 1978 
L 1159 0 
L 581 0 
L 581 3500 
L 1159 3500 
L 1159 2956 
Q 1356 3278 1631 3431 
Q 1906 3584 2284 3584 
Q 2666 3584 2933 3390 
Q 3200 3197 3328 2828 
z
" transform="scale(0.015625)"/>
       </defs>
       <use xlink:href="#DejaVuSans-72"/>
       <use xlink:href="#DejaVuSans-65" x="38.863281"/>
       <use xlink:href="#DejaVuSans-6e" x="100.386719"/>
       <use xlink:href="#DejaVuSans-61" x="163.765625"/>
       <use xlink:href="#DejaVuSans-6d" x="225.044922"/>
       <use xlink:href="#DejaVuSans-65" x="322.457031"/>
      </g>
     </g>
    </g>
    <g id="xtick_4">
     <g id="line2d_4">
      <g>
       <use xlink:href="#mdbcc95cddb" x="228.94397" y="384.48" style="stroke: #000000; stroke-width: 0.8"/>
      </g>
     </g>
     <g id="text_4">
      <!-- Dir -->
      <g transform="translate(223.108345 397.55875) scale(0.08 -0.08)">
       <use xlink:href="#DejaVuSans-44"/>
       <use xlink:href="#DejaVuSans-69" x="77.001953"/>
       <use xlink:href="#DejaVuSans-72" x="104.785156"/>
      </g>
      <!-- remove -->
      <g transform="translate(213.755845 406.517) scale(0.08 -0.08)">
       <defs>
        <path id="DejaVuSans-6f" d="M 1959 3097 
Q 1497 3097 1228 2736 
Q 959 2375 959 1747 
Q 959 1119 1226 758 
Q 1494 397 1959 397 
Q 2419 397 2687 759 
Q 2956 1122 2956 1747 
Q 2956 2369 2687 2733 
Q 2419 3097 1959 3097 
z
M 1959 3584 
Q 2709 3584 3137 3096 
Q 3566 2609 3566 1747 
Q 3566 888 3137 398 
Q 2709 -91 1959 -91 
Q 1206 -91 779 398 
Q 353 888 353 1747 
Q 353 2609 779 3096 
Q 1206 3584 1959 3584 
z
" transform="scale(0.015625)"/>
        <path id="DejaVuSans-76" d="M 191 3500 
L 800 3500 
L 1894 563 
L 2988 3500 
L 3597 3500 
L 2284 0 
L 1503 0 
L 191 3500 
z
" transform="scale(0.015625)"/>
       </defs>
       <use xlink:href="#DejaVuSans-72"/>
       <use xlink:href="#DejaVuSans-65" x="38.863281"/>
       <use xlink:href="#DejaVuSans-6d" x="100.386719"/>
       <use xlink:href="#DejaVuSans-6f" x="197.798828"/>
       <use xlink:href="#DejaVuSans-76" x="258.980469"/>
       <use xlink:href="#DejaVuSans-65" x="318.160156"/>
      </g>
     </g>
    </g>
    <g id="xtick_5">
     <g id="line2d_5">
      <g>
       <use xlink:href="#mdbcc95cddb" x="270.353989" y="384.48" style="stroke: #000000; stroke-width: 0.8"/>
      </g>
     </g>
     <g id="text_5">
      <!-- File -->
      <g transform="translate(263.659614 397.55875) scale(0.08 -0.08)">
       <defs>
        <path id="DejaVuSans-46" d="M 628 4666 
L 3309 4666 
L 3309 4134 
L 1259 4134 
L 1259 2759 
L 3109 2759 
L 3109 2228 
L 1259 2228 
L 1259 0 
L 628 0 
L 628 4666 
z
" transform="scale(0.015625)"/>
        <path id="DejaVuSans-6c" d="M 603 4863 
L 1178 4863 
L 1178 0 
L 603 0 
L 603 4863 
z
" transform="scale(0.015625)"/>
       </defs>
       <use xlink:href="#DejaVuSans-46"/>
       <use xlink:href="#DejaVuSans-69" x="50.269531"/>
       <use xlink:href="#DejaVuSans-6c" x="78.052734"/>
       <use xlink:href="#DejaVuSans-65" x="105.835938"/>
      </g>
      <!-- create -->
      <g transform="translate(257.658364 406.517) scale(0.08 -0.08)">
       <use xlink:href="#DejaVuSans-63"/>
       <use xlink:href="#DejaVuSans-72" x="54.980469"/>
       <use xlink:href="#DejaVuSans-65" x="93.84375"/>
       <use xlink:href="#DejaVuSans-61" x="155.367188"/>
       <use xlink:href="#DejaVuSans-74" x="216.646484"/>
       <use xlink:href="#DejaVuSans-65" x="255.855469"/>
      </g>
     </g>
    </g>
    <g id="xtick_6">
     <g id="line2d_6">
      <g>
       <use xlink:href="#mdbcc95cddb" x="311.764007" y="384.48" style="stroke: #000000; stroke-width: 0.8"/>
      </g>
     </g>
     <g id="text_6">
      <!-- File -->
      <g transform="translate(305.069632 397.55875) scale(0.08 -0.08)">
       <use xlink:href="#DejaVuSans-46"/>
       <use xlink:href="#DejaVuSans-69" x="50.269531"/>
       <use xlink:href="#DejaVuSans-6c" x="78.052734"/>
       <use xlink:href="#DejaVuSans-65" x="105.835938"/>
      </g>
      <!-- stat -->
      <g transform="translate(304.092757 406.517) scale(0.08 -0.08)">
       <use xlink:href="#DejaVuSans-73"/>
       <use xlink:href="#DejaVuSans-74" x="52.099609"/>
       <use xlink:href="#DejaVuSans-61" x="91.308594"/>
       <use xlink:href="#DejaVuSans-74" x="152.587891"/>
      </g>
     </g>
    </g>
    <g id="xtick_7">
     <g id="line2d_7">
      <g>
       <use xlink:href="#mdbcc95cddb" x="353.174026" y="384.48" style="stroke: #000000; stroke-width: 0.8"/>
      </g>
     </g>
     <g id="text_7">
      <!-- File -->
      <g transform="translate(346.479651 397.55875) scale(0.08 -0.08)">
       <use xlink:href="#DejaVuSans-46"/>
       <use xlink:href="#DejaVuSans-69" x="50.269531"/>
       <use xlink:href="#DejaVuSans-6c" x="78.052734"/>
       <use xlink:href="#DejaVuSans-65" x="105.835938"/>
      </g>
      <!-- read -->
      <g transform="translate(344.167776 406.517) scale(0.08 -0.08)">
       <defs>
        <path id="DejaVuSans-64" d="M 2906 2969 
L 2906 4863 
L 3481 4863 
L 3481 0 
L 2906 0 
L 2906 525 
Q 2725 213 2448 61 
Q 2172 -91 1784 -91 
Q 1150 -91 751 415 
Q 353 922 353 1747 
Q 353 2572 751 3078 
Q 1150 3584 1784 3584 
Q 2172 3584 2448 3432 
Q 2725 3281 2906 2969 
z
M 947 1747 
Q 947 1113 1208 752 
Q 1469 391 1925 391 
Q 2381 391 2643 752 
Q 2906 1113 2906 1747 
Q 2906 2381 2643 2742 
Q 2381 3103 1925 3103 
Q 1469 3103 1208 2742 
Q 947 2381 947 1747 
z
" transform="scale(0.015625)"/>
       </defs>
       <use xlink:href="#DejaVuSans-72"/>
       <use xlink:href="#DejaVuSans-65" x="38.863281"/>
       <use xlink:href="#DejaVuSans-61" x="100.386719"/>
       <use xlink:href="#DejaVuSans-64" x="161.666016"/>
      </g>
     </g>
    </g>
    <g id="xtick_8">
     <g id="line2d_8">
      <g>
       <use xlink:href="#mdbcc95cddb" x="394.584045" y="384.48" style="stroke: #000000; stroke-width: 0.8"/>
      </g>
     </g>
     <g id="text_8">
      <!-- File -->
      <g transform="translate(387.88967 397.55875) scale(0.08 -0.08)">
       <use xlink:href="#DejaVuSans-46"/>
       <use xlink:href="#DejaVuSans-69" x="50.269531"/>
       <use xlink:href="#DejaVuSans-6c" x="78.052734"/>
       <use xlink:href="#DejaVuSans-65" x="105.835938"/>
      </g>
      <!-- remove -->
      <g transform="translate(379.39592 406.517) scale(0.08 -0.08)">
       <use xlink:href="#DejaVuSans-72"/>
       <use xlink:href="#DejaVuSans-65" x="38.863281"/>
       <use xlink:href="#DejaVuSans-6d" x="100.386719"/>
       <use xlink:href="#DejaVuSans-6f" x="197.798828"/>
       <use xlink:href="#DejaVuSans-76" x="258.980469"/>
       <use xlink:href="#DejaVuSans-65" x="318.160156"/>
      </g>
     </g>
    </g>
    <g id="xtick_9">
     <g id="line2d_9">
      <g>
       <use xlink:href="#mdbcc95cddb" x="435.994063" y="384.48" style="stroke: #000000; stroke-width: 0.8"/>
      </g>
     </g>
     <g id="text_9">
      <!-- Tree -->
      <g transform="translate(427.664063 397.55875) scale(0.08 -0.08)">
       <defs>
        <path id="DejaVuSans-54" d="M -19 4666 
L 3928 4666 
L 3928 4134 
L 2272 4134 
L 2272 0 
L 1638 0 
L 1638 4134 
L -19 4134 
L -19 4666 
z
" transform="scale(0.015625)"/>
       </defs>
       <use xlink:href="#DejaVuSans-54"/>
       <use xlink:href="#DejaVuSans-72" x="46.333984"/>
       <use xlink:href="#DejaVuSans-65" x="85.197266"/>
       <use xlink:href="#DejaVuSans-65" x="146.720703"/>
      </g>
      <!-- create -->
      <g transform="translate(423.298438 406.517) scale(0.08 -0.08)">
       <use xlink:href="#DejaVuSans-63"/>
       <use xlink:href="#DejaVuSans-72" x="54.980469"/>
       <use xlink:href="#DejaVuSans-65" x="93.84375"/>
       <use xlink:href="#DejaVuSans-61" x="155.367188"/>
       <use xlink:href="#DejaVuSans-74" x="216.646484"/>
       <use xlink:href="#DejaVuSans-65" x="255.855469"/>
      </g>
     </g>
    </g>
    <g id="xtick_10">
     <g id="line2d_10">
      <g>
       <use xlink:href="#mdbcc95cddb" x="477.404082" y="384.48" style="stroke: #000000; stroke-width: 0.8"/>
      </g>
     </g>
     <g id="text_10">
      <!-- Tree -->
      <g transform="translate(469.074082 397.55875) scale(0.08 -0.08)">
       <use xlink:href="#DejaVuSans-54"/>
       <use xlink:href="#DejaVuSans-72" x="46.333984"/>
       <use xlink:href="#DejaVuSans-65" x="85.197266"/>
       <use xlink:href="#DejaVuSans-65" x="146.720703"/>
      </g>
      <!-- remove -->
      <g transform="translate(462.215957 406.517) scale(0.08 -0.08)">
       <use xlink:href="#DejaVuSans-72"/>
       <use xlink:href="#DejaVuSans-65" x="38.863281"/>
       <use xlink:href="#DejaVuSans-6d" x="100.386719"/>
       <use xlink:href="#DejaVuSans-6f" x="197.798828"/>
       <use xlink:href="#DejaVuSans-76" x="258.980469"/>
       <use xlink:href="#DejaVuSans-65" x="318.160156"/>
      </g>
     </g>
    </g>
   </g>
   <g id="matplotlib.axis_2">
    <g id="ytick_1">
     <g id="line2d_11">
      <defs>
       <path id="m399549c585" d="M 0 0 
L -3.5 0 
" style="stroke: #000000; stroke-width: 0.8"/>
      </defs>
      <g>
       <use xlink:href="#m399549c585" x="72" y="384.48" style="stroke: #000000; stroke-width: 0.8"/>
      </g>
     </g>
     <g id="text_11">
      <!-- 0 -->
      <g transform="translate(58.6375 388.279219) scale(0.1 -0.1)">
       <defs>
        <path id="DejaVuSans-30" d="M 2034 4250 
Q 1547 4250 1301 3770 
Q 1056 3291 1056 2328 
Q 1056 1369 1301 889 
Q 1547 409 2034 409 
Q 2525 409 2770 889 
Q 3016 1369 3016 2328 
Q 3016 3291 2770 3770 
Q 2525 4250 2034 4250 
z
M 2034 4750 
Q 2819 4750 3233 4129 
Q 3647 3509 3647 2328 
Q 3647 1150 3233 529 
Q 2819 -91 2034 -91 
Q 1250 -91 836 529 
Q 422 1150 422 2328 
Q 422 3509 836 4129 
Q 1250 4750 2034 4750 
z
" transform="scale(0.015625)"/>
       </defs>
       <use xlink:href="#DejaVuSans-30"/>
      </g>
     </g>
    </g>
    <g id="ytick_2">
     <g id="line2d_12">
      <g>
       <use xlink:href="#m399549c585" x="72" y="344.218421" style="stroke: #000000; stroke-width: 0.8"/>
      </g>
     </g>
     <g id="text_12">
      <!-- 50000 -->
      <g transform="translate(33.1875 348.01764) scale(0.1 -0.1)">
       <defs>
        <path id="DejaVuSans-35" d="M 691 4666 
L 3169 4666 
L 3169 4134 
L 1269 4134 
L 1269 2991 
Q 1406 3038 1543 3061 
Q 1681 3084 1819 3084 
Q 2600 3084 3056 2656 
Q 3513 2228 3513 1497 
Q 3513 744 3044 326 
Q 2575 -91 1722 -91 
Q 1428 -91 1123 -41 
Q 819 9 494 109 
L 494 744 
Q 775 591 1075 516 
Q 1375 441 1709 441 
Q 2250 441 2565 725 
Q 2881 1009 2881 1497 
Q 2881 1984 2565 2268 
Q 2250 2553 1709 2553 
Q 1456 2553 1204 2497 
Q 953 2441 691 2322 
L 691 4666 
z
" transform="scale(0.015625)"/>
       </defs>
       <use xlink:href="#DejaVuSans-35"/>
       <use xlink:href="#DejaVuSans-30" x="63.623047"/>
       <use xlink:href="#DejaVuSans-30" x="127.246094"/>
       <use xlink:href="#DejaVuSans-30" x="190.869141"/>
       <use xlink:href="#DejaVuSans-30" x="254.492188"/>
      </g>
     </g>
    </g>
    <g id="ytick_3">
     <g id="line2d_13">
      <g>
       <use xlink:href="#m399549c585" x="72" y="303.956842" style="stroke: #000000; stroke-width: 0.8"/>
      </g>
     </g>
     <g id="text_13">
      <!-- 100000 -->
      <g transform="translate(26.825 307.75606) scale(0.1 -0.1)">
       <defs>
        <path id="DejaVuSans-31" d="M 794 531 
L 1825 531 
L 1825 4091 
L 703 3866 
L 703 4441 
L 1819 4666 
L 2450 4666 
L 2450 531 
L 3481 531 
L 3481 0 
L 794 0 
L 794 531 
z
" transform="scale(0.015625)"/>
       </defs>
       <use xlink:href="#DejaVuSans-31"/>
       <use xlink:href="#DejaVuSans-30" x="63.623047"/>
       <use xlink:href="#DejaVuSans-30" x="127.246094"/>
       <use xlink:href="#DejaVuSans-30" x="190.869141"/>
       <use xlink:href="#DejaVuSans-30" x="254.492188"/>
       <use xlink:href="#DejaVuSans-30" x="318.115234"/>
      </g>
     </g>
    </g>
    <g id="ytick_4">
     <g id="line2d_14">
      <g>
       <use xlink:href="#m399549c585" x="72" y="263.695263" style="stroke: #000000; stroke-width: 0.8"/>
      </g>
     </g>
     <g id="text_14">
      <!-- 150000 -->
      <g transform="translate(26.825 267.494481) scale(0.1 -0.1)">
       <use xlink:href="#DejaVuSans-31"/>
       <use xlink:href="#DejaVuSans-35" x="63.623047"/>
       <use xlink:href="#DejaVuSans-30" x="127.246094"/>
       <use xlink:href="#DejaVuSans-30" x="190.869141"/>
       <use xlink:href="#DejaVuSans-30" x="254.492188"/>
       <use xlink:href="#DejaVuSans-30" x="318.115234"/>
      </g>
     </g>
    </g>
    <g id="ytick_5">
     <g id="line2d_15">
      <g>
       <use xlink:href="#m399549c585" x="72" y="223.433683" style="stroke: #000000; stroke-width: 0.8"/>
      </g>
     </g>
     <g id="text_15">
      <!-- 200000 -->
      <g transform="translate(26.825 227.232902) scale(0.1 -0.1)">
       <defs>
        <path id="DejaVuSans-32" d="M 1228 531 
L 3431 531 
L 3431 0 
L 469 0 
L 469 531 
Q 828 903 1448 1529 
Q 2069 2156 2228 2338 
Q 2531 2678 2651 2914 
Q 2772 3150 2772 3378 
Q 2772 3750 2511 3984 
Q 2250 4219 1831 4219 
Q 1534 4219 1204 4116 
Q 875 4013 500 3803 
L 500 4441 
Q 881 4594 1212 4672 
Q 1544 4750 1819 4750 
Q 2544 4750 2975 4387 
Q 3406 4025 3406 3419 
Q 3406 3131 3298 2873 
Q 3191 2616 2906 2266 
Q 2828 2175 2409 1742 
Q 1991 1309 1228 531 
z
" transform="scale(0.015625)"/>
       </defs>
       <use xlink:href="#DejaVuSans-32"/>
       <use xlink:href="#DejaVuSans-30" x="63.623047"/>
       <use xlink:href="#DejaVuSans-30" x="127.246094"/>
       <use xlink:href="#DejaVuSans-30" x="190.869141"/>
       <use xlink:href="#DejaVuSans-30" x="254.492188"/>
       <use xlink:href="#DejaVuSans-30" x="318.115234"/>
      </g>
     </g>
    </g>
    <g id="ytick_6">
     <g id="line2d_16">
      <g>
       <use xlink:href="#m399549c585" x="72" y="183.172104" style="stroke: #000000; stroke-width: 0.8"/>
      </g>
     </g>
     <g id="text_16">
      <!-- 250000 -->
      <g transform="translate(26.825 186.971323) scale(0.1 -0.1)">
       <use xlink:href="#DejaVuSans-32"/>
       <use xlink:href="#DejaVuSans-35" x="63.623047"/>
       <use xlink:href="#DejaVuSans-30" x="127.246094"/>
       <use xlink:href="#DejaVuSans-30" x="190.869141"/>
       <use xlink:href="#DejaVuSans-30" x="254.492188"/>
       <use xlink:href="#DejaVuSans-30" x="318.115234"/>
      </g>
     </g>
    </g>
    <g id="ytick_7">
     <g id="line2d_17">
      <g>
       <use xlink:href="#m399549c585" x="72" y="142.910525" style="stroke: #000000; stroke-width: 0.8"/>
      </g>
     </g>
     <g id="text_17">
      <!-- 300000 -->
      <g transform="translate(26.825 146.709744) scale(0.1 -0.1)">
       <defs>
        <path id="DejaVuSans-33" d="M 2597 2516 
Q 3050 2419 3304 2112 
Q 3559 1806 3559 1356 
Q 3559 666 3084 287 
Q 2609 -91 1734 -91 
Q 1441 -91 1130 -33 
Q 819 25 488 141 
L 488 750 
Q 750 597 1062 519 
Q 1375 441 1716 441 
Q 2309 441 2620 675 
Q 2931 909 2931 1356 
Q 2931 1769 2642 2001 
Q 2353 2234 1838 2234 
L 1294 2234 
L 1294 2753 
L 1863 2753 
Q 2328 2753 2575 2939 
Q 2822 3125 2822 3475 
Q 2822 3834 2567 4026 
Q 2313 4219 1838 4219 
Q 1578 4219 1281 4162 
Q 984 4106 628 3988 
L 628 4550 
Q 988 4650 1302 4700 
Q 1616 4750 1894 4750 
Q 2613 4750 3031 4423 
Q 3450 4097 3450 3541 
Q 3450 3153 3228 2886 
Q 3006 2619 2597 2516 
z
" transform="scale(0.015625)"/>
       </defs>
       <use xlink:href="#DejaVuSans-33"/>
       <use xlink:href="#DejaVuSans-30" x="63.623047"/>
       <use xlink:href="#DejaVuSans-30" x="127.246094"/>
       <use xlink:href="#DejaVuSans-30" x="190.869141"/>
       <use xlink:href="#DejaVuSans-30" x="254.492188"/>
       <use xlink:href="#DejaVuSans-30" x="318.115234"/>
      </g>
     </g>
    </g>
    <g id="ytick_8">
     <g id="line2d_18">
      <g>
       <use xlink:href="#m399549c585" x="72" y="102.648946" style="stroke: #000000; stroke-width: 0.8"/>
      </g>
     </g>
     <g id="text_18">
      <!-- 350000 -->
      <g transform="translate(26.825 106.448165) scale(0.1 -0.1)">
       <use xlink:href="#DejaVuSans-33"/>
       <use xlink:href="#DejaVuSans-35" x="63.623047"/>
       <use xlink:href="#DejaVuSans-30" x="127.246094"/>
       <use xlink:href="#DejaVuSans-30" x="190.869141"/>
       <use xlink:href="#DejaVuSans-30" x="254.492188"/>
       <use xlink:href="#DejaVuSans-30" x="318.115234"/>
      </g>
     </g>
    </g>
    <g id="ytick_9">
     <g id="line2d_19">
      <g>
       <use xlink:href="#m399549c585" x="72" y="62.387367" style="stroke: #000000; stroke-width: 0.8"/>
      </g>
     </g>
     <g id="text_19">
      <!-- 400000 -->
      <g transform="translate(26.825 66.186585) scale(0.1 -0.1)">
       <defs>
        <path id="DejaVuSans-34" d="M 2419 4116 
L 825 1625 
L 2419 1625 
L 2419 4116 
z
M 2253 4666 
L 3047 4666 
L 3047 1625 
L 3713 1625 
L 3713 1100 
L 3047 1100 
L 3047 0 
L 2419 0 
L 2419 1100 
L 313 1100 
L 313 1709 
L 2253 4666 
z
" transform="scale(0.015625)"/>
       </defs>
       <use xlink:href="#DejaVuSans-34"/>
       <use xlink:href="#DejaVuSans-30" x="63.623047"/>
       <use xlink:href="#DejaVuSans-30" x="127.246094"/>
       <use xlink:href="#DejaVuSans-30" x="190.869141"/>
       <use xlink:href="#DejaVuSans-30" x="254.492188"/>
       <use xlink:href="#DejaVuSans-30" x="318.115234"/>
      </g>
     </g>
    </g>
   </g>
   <g id="patch_43">
    <path d="M 72 384.48 
L 72 51.84 
" style="fill: none; stroke: #000000; stroke-width: 0.8; stroke-linejoin: miter; stroke-linecap: square"/>
   </g>
   <g id="patch_44">
    <path d="M 518.4 384.48 
L 518.4 51.84 
" style="fill: none; stroke: #000000; stroke-width: 0.8; stroke-linejoin: miter; stroke-linecap: square"/>
   </g>
   <g id="patch_45">
    <path d="M 72 384.48 
L 518.4 384.48 
" style="fill: none; stroke: #000000; stroke-width: 0.8; stroke-linejoin: miter; stroke-linecap: square"/>
   </g>
   <g id="patch_46">
    <path d="M 72 51.84 
L 518.4 51.84 
" style="fill: none; stroke: #000000; stroke-width: 0.8; stroke-linejoin: miter; stroke-linecap: square"/>
   </g>
   <g id="text_20">
    <!-- mdtest -->
    <g transform="translate(274.024687 45.84) scale(0.12 -0.12)">
     <use xlink:href="#DejaVuSans-6d"/>
     <use xlink:href="#DejaVuSans-64" x="97.412109"/>
     <use xlink:href="#DejaVuSans-74" x="160.888672"/>
     <use xlink:href="#DejaVuSans-65" x="200.097656"/>
     <use xlink:href="#DejaVuSans-73" x="261.621094"/>
     <use xlink:href="#DejaVuSans-74" x="313.720703"/>
    </g>
   </g>
   <g id="legend_1">
    <g id="patch_47">
     <path d="M 457.220312 118.5525 
L 511.4 118.5525 
Q 513.4 118.5525 513.4 116.5525 
L 513.4 58.84 
Q 513.4 56.84 511.4 56.84 
L 457.220312 56.84 
Q 455.220312 56.84 455.220312 58.84 
L 455.220312 116.5525 
Q 455.220312 118.5525 457.220312 118.5525 
z
" style="fill: #ffffff; opacity: 0.8; stroke: #cccccc; stroke-linejoin: miter"/>
    </g>
    <g id="patch_48">
     <path d="M 459.220312 68.438438 
L 479.220312 68.438438 
L 479.220312 61.438438 
L 459.220312 61.438438 
z
" style="fill: #1f77b4"/>
    </g>
    <g id="text_21">
     <!-- dbfs -->
     <g transform="translate(487.220312 68.438438) scale(0.1 -0.1)">
      <defs>
       <path id="DejaVuSans-62" d="M 3116 1747 
Q 3116 2381 2855 2742 
Q 2594 3103 2138 3103 
Q 1681 3103 1420 2742 
Q 1159 2381 1159 1747 
Q 1159 1113 1420 752 
Q 1681 391 2138 391 
Q 2594 391 2855 752 
Q 3116 1113 3116 1747 
z
M 1159 2969 
Q 1341 3281 1617 3432 
Q 1894 3584 2278 3584 
Q 2916 3584 3314 3078 
Q 3713 2572 3713 1747 
Q 3713 922 3314 415 
Q 2916 -91 2278 -91 
Q 1894 -91 1617 61 
Q 1341 213 1159 525 
L 1159 0 
L 581 0 
L 581 4863 
L 1159 4863 
L 1159 2969 
z
" transform="scale(0.015625)"/>
       <path id="DejaVuSans-66" d="M 2375 4863 
L 2375 4384 
L 1825 4384 
Q 1516 4384 1395 4259 
Q 1275 4134 1275 3809 
L 1275 3500 
L 2222 3500 
L 2222 3053 
L 1275 3053 
L 1275 0 
L 697 0 
L 697 3053 
L 147 3053 
L 147 3500 
L 697 3500 
L 697 3744 
Q 697 4328 969 4595 
Q 1241 4863 1831 4863 
L 2375 4863 
z
" transform="scale(0.015625)"/>
      </defs>
      <use xlink:href="#DejaVuSans-64"/>
      <use xlink:href="#DejaVuSans-62" x="63.476562"/>
      <use xlink:href="#DejaVuSans-66" x="126.953125"/>
      <use xlink:href="#DejaVuSans-73" x="162.158203"/>
     </g>
    </g>
    <g id="patch_49">
     <path d="M 459.220312 83.116563 
L 479.220312 83.116563 
L 479.220312 76.116563 
L 459.220312 76.116563 
z
" style="fill: #ff7f0e"/>
    </g>
    <g id="text_22">
     <!-- ext4 -->
     <g transform="translate(487.220312 83.116563) scale(0.1 -0.1)">
      <defs>
       <path id="DejaVuSans-78" d="M 3513 3500 
L 2247 1797 
L 3578 0 
L 2900 0 
L 1881 1375 
L 863 0 
L 184 0 
L 1544 1831 
L 300 3500 
L 978 3500 
L 1906 2253 
L 2834 3500 
L 3513 3500 
z
" transform="scale(0.015625)"/>
      </defs>
      <use xlink:href="#DejaVuSans-65"/>
      <use xlink:href="#DejaVuSans-78" x="59.773438"/>
      <use xlink:href="#DejaVuSans-74" x="118.953125"/>
      <use xlink:href="#DejaVuSans-34" x="158.162109"/>
     </g>
    </g>
    <g id="patch_50">
     <path d="M 459.220312 97.794688 
L 479.220312 97.794688 
L 479.220312 90.794688 
L 459.220312 90.794688 
z
" style="fill: #2ca02c"/>
    </g>
    <g id="text_23">
     <!-- ext2 -->
     <g transform="translate(487.220312 97.794688) scale(0.1 -0.1)">
      <use xlink:href="#DejaVuSans-65"/>
      <use xlink:href="#DejaVuSans-78" x="59.773438"/>
      <use xlink:href="#DejaVuSans-74" x="118.953125"/>
      <use xlink:href="#DejaVuSans-32" x="158.162109"/>
     </g>
    </g>
    <g id="patch_51">
     <path d="M 459.220312 112.472813 
L 479.220312 112.472813 
L 479.220312 105.472813 
L 459.220312 105.472813 
z
" style="fill: #d62728"/>
    </g>
    <g id="text_24">
     <!-- jfs -->
     <g transform="translate(487.220312 112.472813) scale(0.1 -0.1)">
      <defs>
       <path id="DejaVuSans-6a" d="M 603 3500 
L 1178 3500 
L 1178 -63 
Q 1178 -731 923 -1031 
Q 669 -1331 103 -1331 
L -116 -1331 
L -116 -844 
L 38 -844 
Q 366 -844 484 -692 
Q 603 -541 603 -63 
L 603 3500 
z
M 603 4863 
L 1178 4863 
L 1178 4134 
L 603 4134 
L 603 4863 
z
" transform="scale(0.015625)"/>
      </defs>
      <use xlink:href="#DejaVuSans-6a"/>
      <use xlink:href="#DejaVuSans-66" x="27.783203"/>
      <use xlink:href="#DejaVuSans-73" x="62.988281"/>
     </g>
    </g>
   </g>
  </g>
 </g>
 <defs>
  <clipPath id="pbc1d969bda">
   <rect x="72" y="51.84" width="446.4" height="332.64"/>
  </clipPath>
 </defs>
</svg>
